<svg xmlns="http://www.w3.org/2000/svg" width="52" height="12.104" viewBox="0 0 52 12.104"><g transform="translate(-144 -204)"><text transform="translate(158 214)" fill="#616b80" font-size="9" font-family="SegoeUI-Bold, Segoe UI" font-weight="700"><tspan x="0" y="0">D K 2 3 5</tspan></text><path d="M8,2.1H7.865V1.311C7.865.577,6.239,0,4.195,0S.524.577.524,1.311V2.1H.393A.393.393,0,0,0,0,2.491V3.8a.393.393,0,0,0,.393.393H.524V6.816a.524.524,0,0,0,.524.524v.524a.524.524,0,0,0,.524.524H2.1a.524.524,0,0,0,.524-.524V7.34H5.768v.524a.524.524,0,0,0,.524.524h.524a.524.524,0,0,0,.524-.524V7.34h.1a.414.414,0,0,0,.419-.419V4.195H8A.393.393,0,0,0,8.389,3.8V2.491A.393.393,0,0,0,8,2.1ZM2.622,1.18a.131.131,0,0,1,.131-.131H5.636a.131.131,0,0,1,.131.131v.262a.131.131,0,0,1-.131.131H2.753a.131.131,0,0,1-.131-.131ZM1.835,6.554a.524.524,0,1,1,.524-.524A.524.524,0,0,1,1.835,6.554Zm2.1-1.835H2.1a.524.524,0,0,1-.524-.524V2.622A.524.524,0,0,1,2.1,2.1H3.932Zm.524,0V2.1H6.292a.524.524,0,0,1,.524.524V4.195a.524.524,0,0,1-.524.524Zm2.1,1.835a.524.524,0,1,1,.524-.524A.524.524,0,0,1,6.554,6.554Z" transform="translate(144 207.715)" fill="#1752d3"/></g></svg>