<svg xmlns="http://www.w3.org/2000/svg" width="91.887" height="14" viewBox="0 0 91.887 14"><g transform="translate(-212.113 -229)"><text transform="translate(226 240)" fill="#616b80" font-size="10" font-family="SegoeUI-Bold, Segoe UI" font-weight="700"><tspan x="0" y="0">Display to driver</tspan></text><path d="M4.66.562a4.66,4.66,0,1,0,4.66,4.66A4.66,4.66,0,0,0,4.66.562Zm0,8.118A3.458,3.458,0,1,1,8.118,5.223,3.456,3.456,0,0,1,4.66,8.681Zm0-5.863A2.405,2.405,0,1,0,7.066,5.223,2.405,2.405,0,0,0,4.66,2.818Zm0,3.608a1.2,1.2,0,1,1,1.2-1.2A1.2,1.2,0,0,1,4.66,6.426Z" transform="translate(212.113 231.921)" fill="#1752d3"/></g></svg>