<svg xmlns="http://www.w3.org/2000/svg" width="31" height="12" viewBox="0 0 31 12"><g transform="translate(-144 -229)"><path d="M6.6,1.369,8.076,2.847a.16.16,0,0,1,0,.226L4.5,6.652l-1.521.169a.319.319,0,0,1-.352-.352l.169-1.521L6.372,1.369A.16.16,0,0,1,6.6,1.369ZM9.253.994l-.8-.8a.641.641,0,0,0-.9,0l-.58.58a.16.16,0,0,0,0,.226L8.447,2.478a.16.16,0,0,0,.226,0l.58-.58a.641.641,0,0,0,0-.9ZM6.293,5.679V7.347H1.049V2.1H4.815a.2.2,0,0,0,.139-.057L5.61,1.39a.2.2,0,0,0-.139-.336H.787A.787.787,0,0,0,0,1.841V7.61A.787.787,0,0,0,.787,8.4H6.555a.787.787,0,0,0,.787-.787V5.023a.2.2,0,0,0-.336-.139L6.35,5.54A.2.2,0,0,0,6.293,5.679Z" transform="translate(144 232.477)" fill="#1752d3"/><text transform="translate(158 239)" fill="#616b80" font-size="9" font-family="SegoeUI-Bold, Segoe UI" font-weight="700"><tspan x="0" y="0">Edit</tspan></text></g></svg>