<svg xmlns="http://www.w3.org/2000/svg" width="87.887" height="14" viewBox="0 0 87.887 14"><g transform="translate(-202.113 -204)"><text transform="translate(216 215)" fill="#616b80" font-size="10" font-family="SegoeUI-Bold, Segoe UI" font-weight="700"><tspan x="0" y="0">+20 100100101</tspan></text><path d="M8.982.447,7.088.01a.44.44,0,0,0-.5.253L5.714,2.3a.436.436,0,0,0,.126.51l1.1.9A6.747,6.747,0,0,1,3.717,6.941l-.9-1.1a.436.436,0,0,0-.51-.126L.265,6.586a.442.442,0,0,0-.255.5L.447,8.982a.437.437,0,0,0,.426.339A8.446,8.446,0,0,0,9.32.873.436.436,0,0,0,8.982.447Z" transform="translate(202.114 207.716)" fill="#1752d3"/></g></svg>