<svg xmlns="http://www.w3.org/2000/svg" width="54.521" height="12.449" viewBox="0 0 54.521 12.449"><g transform="translate(-292.381 -204)"><text transform="translate(305.902 214)" fill="#616b80" font-size="9" font-family="SegoeUI-Bold, Segoe UI" font-weight="700"><tspan x="0" y="0">Track Bus</tspan></text><path d="M4.913,0A2.149,2.149,0,0,0,2.763,2.149c0,.96,1.4,2.709,1.943,3.344a.269.269,0,0,0,.413,0c.538-.635,1.943-2.384,1.943-3.344A2.149,2.149,0,0,0,4.913,0Zm0,2.866a.716.716,0,1,1,.716-.716A.716.716,0,0,1,4.913,2.866ZM.343,3.684A.546.546,0,0,0,0,4.19V8.46a.273.273,0,0,0,.374.253L2.729,7.642V3.666a5.166,5.166,0,0,1-.362-.792ZM4.913,6.135a.815.815,0,0,1-.623-.289C3.954,5.45,3.6,5,3.275,4.537v3.1L6.55,8.733v-4.2C6.227,5,5.871,5.45,5.535,5.846A.815.815,0,0,1,4.913,6.135ZM9.451,2.749,7.1,3.821V8.734l2.386-.954a.546.546,0,0,0,.343-.507V3A.273.273,0,0,0,9.451,2.749Z" transform="translate(292.381 207.715)" fill="#1752d3"/></g></svg>